<svg xmlns="http://www.w3.org/2000/svg" viewBox="0 0 256 256">
  <rect width="256" height="256" rx="56" fill="#3d2810"/>
  <rect x="20" y="20" width="216" height="216" rx="44" fill="#f2e8d5"/>
  <path d="M28 170c28-12 44-14 69-9 27 5 43 16 69 11 24-4 39-18 62-17v35c-24-1-38 13-63 17-27 5-43-6-69-11-24-5-40-3-68 9z" fill="#C8102E"/>
  <path d="M24 152c30-15 47-18 74-13 26 5 38 16 64 12 27-4 39-21 70-20v20c-31-1-43 16-70 20-26 4-38-7-64-12-27-5-44-2-74 13z" fill="#2060a0" opacity=".95"/>
  <circle cx="76" cy="78" r="18" fill="#f0b33c"/>
  <path d="M130 72h48c24 0 40 17 40 40 0 25-19 44-46 44h-40z" fill="#446b52"/>
  <path d="M124 74v84H88c-28 0-46-18-46-43 0-24 16-41 40-41z" fill="#faf6ee"/>
  <path d="M76 78c16 4 24 15 24 31 0 10-4 18-12 25" fill="none" stroke="#b47800" stroke-width="8" stroke-linecap="round"/>
</svg>
