<svg xmlns="http://www.w3.org/2000/svg" viewBox="0 0 512 512">
  <rect width="512" height="512" fill="#9a0c22"/>
  <path transform="translate(256.0 256.0) scale(0.41280 -0.41280) translate(-391.5 -372.5)" fill="#f2e8d5" d="M420 -12Q340 -12 271.5 17.0Q203 46 152.0 98.0Q101 150 72.5 220.0Q44 290 44 373Q44 456 72.0 526.5Q100 597 151.0 648.5Q202 700 270.5 728.5Q339 757 420 757Q501 757 565.5 730.0Q630 703 675.0 658.0Q720 613 739 558L602 492Q583 546 535.5 581.5Q488 617 420 617Q354 617 304.0 586.0Q254 555 226.5 500.5Q199 446 199 373Q199 300 226.5 245.0Q254 190 304.0 159.0Q354 128 420 128Q488 128 535.5 163.5Q583 199 602 253L739 187Q720 132 675.0 87.0Q630 42 565.5 15.0Q501 -12 420 -12Z"/>
</svg>
